<?xml version="1.0" encoding="UTF-8" standalone="no"?>
<svg
   xmlns:dc="http://purl.org/dc/elements/1.1/"
   xmlns:cc="http://creativecommons.org/ns#"
   xmlns:rdf="http://www.w3.org/1999/02/22-rdf-syntax-ns#"
   xmlns:svg="http://www.w3.org/2000/svg"
   xmlns="http://www.w3.org/2000/svg"
   xmlns:xlink="http://www.w3.org/1999/xlink"
   xmlns:sodipodi="http://sodipodi.sourceforge.net/DTD/sodipodi-0.dtd"
   xmlns:inkscape="http://www.inkscape.org/namespaces/inkscape"
   width="31.389397mm"
   height="33.313984mm"
   viewBox="0 0 31.389397 33.313984"
   version="1.1"
   id="svg8"
   inkscape:version="1.0.2 (394de47547, 2021-03-26)"
   sodipodi:docname="atyal-blue-by-new.svg">
  <defs
     id="defs2">
    <linearGradient
       inkscape:collect="always"
       xlink:href="#linearGradient1840"
       id="linearGradient1924"
       gradientUnits="userSpaceOnUse"
       gradientTransform="matrix(0.17953113,0,0,0.16778038,76.628232,156.94719)"
       x1="336.10794"
       y1="81.515533"
       x2="345.1915"
       y2="158.88908" />
    <linearGradient
       inkscape:collect="always"
       id="linearGradient1840">
      <stop
         style="stop-color:#3c95cc;stop-opacity:1"
         offset="0"
         id="stop1838" />
      <stop
         style="stop-color:#0066a5;stop-opacity:1"
         offset="0.46507689"
         id="stop1863" />
      <stop
         style="stop-color:#004c7b;stop-opacity:1"
         offset="1"
         id="stop1834" />
    </linearGradient>
    <linearGradient
       inkscape:collect="always"
       xlink:href="#linearGradient1853"
       id="linearGradient1928"
       gradientUnits="userSpaceOnUse"
       gradientTransform="matrix(0.17953113,0,0,0.16778038,76.628232,156.94719)"
       x1="241.37132"
       y1="98.818024"
       x2="247"
       y2="176.5" />
    <linearGradient
       inkscape:collect="always"
       id="linearGradient1853">
      <stop
         style="stop-color:#004c7b;stop-opacity:1"
         offset="0"
         id="stop1847" />
      <stop
         style="stop-color:#0066a5;stop-opacity:1"
         offset="0.49993294"
         id="stop1867" />
      <stop
         style="stop-color:#3c95cc;stop-opacity:1"
         offset="1"
         id="stop1851" />
    </linearGradient>
    <linearGradient
       inkscape:collect="always"
       xlink:href="#linearGradient1811"
       id="linearGradient1926"
       gradientUnits="userSpaceOnUse"
       gradientTransform="matrix(0.26583239,0,0,0.26458001,-175.69664,160.89003)"
       x1="262.07538"
       y1="97.338837"
       x2="321.23715"
       y2="141.80728" />
    <linearGradient
       inkscape:collect="always"
       id="linearGradient1811">
      <stop
         style="stop-color:#3c95cc;stop-opacity:1"
         offset="0"
         id="stop1807" />
      <stop
         style="stop-color:#0066a5;stop-opacity:1"
         offset="0.44240317"
         id="stop1865" />
      <stop
         style="stop-color:#004c7b;stop-opacity:1"
         offset="1"
         id="stop1809" />
    </linearGradient>
    <linearGradient
       inkscape:collect="always"
       xlink:href="#linearGradient1811"
       id="linearGradient1136"
       gradientUnits="userSpaceOnUse"
       gradientTransform="matrix(0.18038094,0,0,0.16778038,76.380391,156.94719)"
       x1="262.07538"
       y1="97.338837"
       x2="321.23715"
       y2="141.80728" />
  </defs>
  <sodipodi:namedview
     id="base"
     pagecolor="#ffffff"
     bordercolor="#666666"
     borderopacity="1.0"
     inkscape:pageopacity="0.0"
     inkscape:pageshadow="2"
     inkscape:zoom="0.35"
     inkscape:cx="59.318544"
     inkscape:cy="62.95556"
     inkscape:document-units="mm"
     inkscape:current-layer="layer1"
     inkscape:document-rotation="0"
     showgrid="false"
     inkscape:window-width="1024"
     inkscape:window-height="482"
     inkscape:window-x="462"
     inkscape:window-y="73"
     inkscape:window-maximized="0" />
  <metadata
     id="metadata5">
    <rdf:RDF>
      <cc:Work
         rdf:about="">
        <dc:format>image/svg+xml</dc:format>
        <dc:type
           rdf:resource="http://purl.org/dc/dcmitype/StillImage" />
        <dc:title></dc:title>
      </cc:Work>
    </rdf:RDF>
  </metadata>
  <g
     inkscape:label="Layer 1"
     inkscape:groupmode="layer"
     id="layer1"
     transform="translate(-90.138635,-131.50967)">
    <g
       id="g1145"
       inkscape:export-xdpi="96.013214"
       inkscape:export-ydpi="96.013214"
       transform="matrix(1.1460023,0,0,1.1844506,-42.696885,-64.296482)">
      <ellipse
         style="fill:#ffffff;fill-opacity:1;stroke:#ffffff;stroke-width:0.455125;stroke-linejoin:round;stroke-opacity:0.481835"
         id="path302"
         cx="135.76712"
         cy="176.17035"
         inkscape:export-xdpi="76.800003"
         inkscape:export-ydpi="76.800003"
         rx="2.2919841"
         ry="1.2909865" />
      <path
         id="path1920"
         style="fill:url(#linearGradient1924);fill-opacity:1;stroke:none;stroke-width:0.173055px;stroke-linecap:butt;stroke-linejoin:miter;stroke-opacity:1"
         d="m 137.80276,165.35948 c -1.74131,0.73291 -2.85791,1.98775 -3.69056,3.31464 -0.002,0.0355 -0.005,0.0709 -0.005,0.10716 -0.005,0.21229 0.0143,0.43069 0.0512,0.65474 0.0368,0.22404 0.0915,0.45384 0.15814,0.68849 0.13334,0.46928 0.31456,0.95844 0.49652,1.46316 0.18195,0.50471 0.36461,1.02502 0.50107,1.5559 0.0682,0.26543 0.12524,0.53327 0.16446,0.80351 0.0392,0.27024 0.0608,0.54273 0.0592,0.81662 -0.001,0.27421 -0.006,0.56887 -0.0109,0.8697 0.0786,0.0457 0.099,0.0585 0.28717,0.16615 -0.0419,0.63635 0.3475,1.23442 0.3475,1.23442 l -0.21951,0.0839 -0.44392,-0.20808 c -0.0605,2.16712 -0.17895,4.57293 -0.28297,5.93228 -0.0514,0.67253 -0.16699,1.61698 -0.28157,2.49213 -0.0774,-0.0916 -0.17072,-0.16979 -0.29069,-0.22513 0.61544,0.28389 0.54598,1.15387 1.07193,1.49593 0.3046,0.1981 0.76187,0.16988 1.0814,0.24053 0.6827,0.15096 0.0893,-0.003 0.7851,0.08 0.98925,0.11789 1.39485,-1.27592 1.52811,-1.64569 0.10586,-0.29371 0.54768,-0.19117 0.65922,-0.48302 0.18247,-0.47743 0.495,-0.80912 0.41972,-1.03192 -0.68226,-2.01912 -0.16013,-7.4379 1.22762,-7.92533 -1.54207,-3.46898 -0.76633,-4.27157 1.66031,-7.47245 l 0.16726,-0.62393 c -3.69744,0.51699 -3.13523,1.3452 -3.92409,2.1972 -0.31987,-0.67349 -0.46525,-1.41506 -1.33491,-1.9996 -0.12758,-0.0858 -0.93753,1.74548 -1.8423,2.24078 0.69653,-1.67807 1.7172,-3.36466 1.66101,-4.82204 z" />
      <path
         id="path1916"
         style="fill:url(#linearGradient1928);fill-opacity:1;stroke:none;stroke-width:0.173055px;stroke-linecap:butt;stroke-linejoin:miter;stroke-opacity:1"
         d="m 122.06749,188.00229 c -0.12869,-0.62338 -0.26249,-1.31504 -0.38571,-2.04253 -0.1256,-0.74149 -0.24013,-1.51654 -0.32715,-2.28437 -0.087,-0.76783 -0.14673,-1.52823 -0.16201,-2.2398 -0.0153,-0.71157 0.0138,-1.37445 0.10345,-1.94717 0.0976,-0.62318 0.23402,-1.23957 0.39938,-1.85017 0.16536,-0.6106 0.35976,-1.21536 0.57296,-1.81544 0.42639,-1.20016 0.92838,-2.3814 1.42644,-3.5519 0.17584,-0.41325 0.4587,-0.8766 0.80087,-1.36911 0.34218,-0.49251 0.74375,-1.01426 1.15679,-1.54378 0.41304,-0.52951 0.83743,-1.06669 1.22586,-1.59096 0.38734,-0.5228 0.73829,-1.03242 1.00635,-1.50806 -0.17459,0.0412 -2.74852,0.65372 -3.66811,1.55426 -1.51198,1.48066 -1.71706,3.81346 -2.0839,4.43472 l -0.39553,-3.08788 c 0,0 -2.72837,2.01462 -3.04957,3.4159 -0.28454,1.24129 0.0469,4.22793 0.0469,4.22793 l -1.50988,-2.58912 -1.13294,2.06186 -0.13676,1.65061 c -1.8e-4,0.003 0.64869,4.2122 2.47171,6.62536 0.99202,1.31313 2.24951,2.47185 3.64077,3.44965 z" />
      <path
         id="path1918"
         style="fill:url(#linearGradient1136);fill-opacity:1;stroke:#000000;stroke-width:0.0520669;stroke-linecap:butt;stroke-linejoin:miter;stroke-miterlimit:4;stroke-dasharray:none;stroke-opacity:1"
         d="m 133.23491,165.68947 c -1.06144,0.01 -2.31548,0.0964 -3.08657,0.40437 -1.38252,0.55221 -3.35077,2.82408 -3.35077,2.82408 l 1.18303,-2.68808 c 0,0 -0.0827,0.0212 -0.0983,0.0249 -1.07848,1.90716 -3.50582,4.36316 -4.21253,6.01617 -1.00083,2.34099 -2.01796,4.72477 -2.41013,7.21751 -0.36041,2.29088 0.25615,6.02296 0.78247,8.55319 0.79422,0.55351 1.63653,1.04219 2.51055,1.45039 1.80817,0.84447 3.56556,0.661 5.2631,1.68698 0.89539,0.54116 1.78161,2.14378 1.78161,2.14378 l 0.8089,-3.21175 c 0,0 -0.18624,-1.59663 -1.32362,-2.28371 -1.6674,-1.00728 -5.30192,-1.54276 -6.89146,-2.69661 -0.94185,-0.68369 -2.0913,-1.82399 -2.48553,-2.87652 -0.45179,-1.20615 0.41043,-3.11802 0.41043,-3.11802 0,0 0.50711,2.73492 1.0756,3.64561 0.57094,0.91459 1.43342,1.59401 2.79944,2.23784 1.62929,0.76793 3.5318,1.14238 5.10878,2.00058 0.67641,0.3681 1.23871,0.98866 1.23871,0.98866 0,0 0.19556,-2.79886 -0.65775,-4.04737 -1.06197,-1.55382 -4.58703,-3.333 -4.58703,-3.333 0,0 -1.89144,-1.98854 -1.9951,-2.9912 -0.46736,-0.88938 0.92304,-2.93879 0.92304,-2.93879 l 0.28536,2.90536 c 0.11496,1.16942 0.0913,0.96487 2.20544,3.10197 0.94155,0.75966 2.92669,1.04641 4.24318,2.61436 0,0 0.0265,-1.90365 -0.58871,-2.62223 -0.9807,-1.14555 -2.51875,-2.4737 -2.77793,-3.92121 -0.20371,-1.13763 1.57903,-2.55504 1.57903,-2.55504 0,0 -0.79421,2.16251 -0.57425,3.12458 0.15207,0.66513 1.30248,1.7653 1.30248,1.7653 l 1.22602,0.61967 c 0,0 1.07674,1.86149 1.32679,2.90404 0.1963,0.81852 -0.55146,2.0278 0.41995,2.47378 0.12053,0.0554 0.21429,0.1335 0.29206,0.22512 0.11511,-0.87514 0.23119,-1.81959 0.2829,-2.49212 0.10451,-1.35935 0.22348,-3.76516 0.28431,-5.93228 l -0.0522,-0.0242 -0.22407,-0.10617 c 0,0 -0.26298,-0.076 -0.44883,-0.17695 -0.23571,-0.12798 -0.58677,-0.25695 -0.6782,-0.49712 -0.14596,-0.38362 -0.19341,-1.14432 -0.19341,-1.14432 0,0 0.71758,0.15589 1.09919,0.38046 0.21077,0.11494 0.23313,0.12598 0.30405,0.16385 -0.16071,-0.0961 0.27675,0.14778 0,0 0.0255,0.0153 0.16144,0.0929 0.2223,0.12813 0.005,-0.30083 0.009,-0.5955 0.0109,-0.86971 0.0126,-2.19104 -1.47508,-4.28406 -1.43742,-5.98241 0.001,-0.0554 0.006,-0.10873 0.008,-0.16353 -0.42372,0.665 -0.76929,1.35124 -1.06855,2.00517 0,0 -0.0664,-2.01672 0.22301,-2.77263 0.19112,-0.4992 0.78875,-1.12282 1.25879,-1.56245 0.0594,-0.19333 0.12174,-0.38259 0.18778,-0.56496 -0.34773,-0.0189 -0.84175,-0.0395 -1.5054,-0.0334 z" />
      <path
         id="path1922"
         style="fill:none;fill-opacity:1;stroke:#000000;stroke-width:0.0867782;stroke-linecap:butt;stroke-linejoin:miter;stroke-miterlimit:4;stroke-dasharray:none;stroke-opacity:1"
         d="m 137.80277,165.35942 c -1.72381,0.72554 -2.83431,1.96292 -3.66426,3.27499 2.9e-4,-0.006 4.6e-4,-0.0111 6.7e-4,-0.0167 -0.42372,0.665 -0.76915,1.35124 -1.06842,2.00517 0,0 -0.0664,-2.01673 0.22301,-2.77264 0.19112,-0.4992 0.78879,-1.12282 1.25882,-1.56245 0.0594,-0.19333 0.12156,-0.38259 0.1876,-0.56495 -0.34773,-0.0189 -0.84167,-0.0395 -1.50533,-0.0334 -1.06144,0.01 -2.31531,0.0964 -3.08639,0.40438 -1.38252,0.55221 -3.35077,2.82408 -3.35077,2.82408 l 1.18272,-2.68809 c 0,0 -0.0826,0.0212 -0.0982,0.0249 -0.001,0.002 -0.003,0.004 -0.003,0.006 -0.1879,0.0443 -2.74521,0.65468 -3.66215,1.55262 -1.51198,1.48066 -1.71706,3.81345 -2.0839,4.43471 l -0.39553,-3.08788 c 0,0 -2.72837,2.01463 -3.04957,3.41591 -0.28454,1.24129 0.0469,4.22793 0.0469,4.22793 l -1.50988,-2.58913 -1.13294,2.06186 -0.13675,1.65061 c -1.8e-4,0.003 0.64868,4.2122 2.47171,6.62536 0.98271,1.30083 2.22647,2.44949 3.60219,3.42147 0.005,0.0215 0.009,0.0462 0.0133,0.0675 0.79422,0.5535 1.63627,1.04219 2.51029,1.45038 1.80817,0.84448 3.56566,0.66101 5.2632,1.68698 0.89539,0.54116 1.78163,2.14379 1.78163,2.14379 l 0.80895,-3.21175 c 0,0 -0.18632,-1.59663 -1.32369,-2.28371 -1.66742,-1.00728 -5.30172,-1.54276 -6.89126,-2.69662 -0.94185,-0.68369 -2.09151,-1.82399 -2.48574,-2.87651 -0.45179,-1.20616 0.4106,-3.11803 0.4106,-3.11803 0,0 0.50695,2.73493 1.07544,3.64562 0.57093,0.91459 1.43356,1.59401 2.79957,2.23784 1.6293,0.76793 3.53159,1.14238 5.10857,2.00058 0.6764,0.3681 1.23883,0.98866 1.23883,0.98866 0,0 0.1955,-2.79886 -0.65781,-4.04737 -1.06197,-1.55383 -4.58681,-3.333 -4.58681,-3.333 0,0 -1.89151,-1.98855 -1.99518,-2.99121 -0.46735,-0.88937 0.9229,-2.93878 0.9229,-2.93878 l 0.28543,2.90535 c 0.11496,1.16943 0.0914,0.96488 2.20556,3.10198 0.94156,0.75966 2.9267,1.04641 4.24318,2.61435 0,0 0.0264,-1.90364 -0.58874,-2.62222 -0.9807,-1.14555 -2.51898,-2.4737 -2.77817,-3.92121 -0.20371,-1.13763 1.57932,-2.55505 1.57932,-2.55505 0,0 -0.79432,2.16252 -0.57436,3.12459 0.15207,0.66513 1.30229,1.76529 1.30229,1.76529 l 1.22622,0.61968 c 0,0 1.0768,1.86148 1.32685,2.90404 0.1963,0.81851 -0.55169,2.0278 0.41972,2.47378 0.10835,0.0498 0.19428,0.11876 0.26719,0.19858 -0.001,0.009 -0.002,0.0178 -0.003,0.0266 0.31968,0.37842 0.35781,0.99542 0.78124,1.27081 0.30459,0.19809 0.76186,0.16987 1.08139,0.24053 0.68271,0.15095 0.0893,-0.003 0.7851,0.0799 0.98926,0.11789 1.39486,-1.27591 1.52812,-1.64569 0.10586,-0.29371 0.54768,-0.19117 0.65922,-0.48302 0.18247,-0.47743 0.495,-0.80911 0.41972,-1.03191 -0.68226,-2.01913 -0.16014,-7.43791 1.22762,-7.92533 -1.54207,-3.46898 -0.76633,-4.27157 1.66031,-7.47246 l 0.16726,-0.62393 c -3.69744,0.51699 -3.13523,1.3452 -3.92409,2.1972 -0.31988,-0.67349 -0.46526,-1.41506 -1.33491,-1.9996 -0.12758,-0.0857 -0.93753,1.74549 -1.8423,2.24079 0.69653,-1.67808 1.7172,-3.36467 1.66101,-4.82205 z m -2.86969,19.97471 c -0.0131,-0.0155 -0.0273,-0.0299 -0.0414,-0.0446 0.014,0.0147 0.0283,0.0291 0.0414,0.0446 z m -0.0414,-0.0446 c -0.009,-0.01 -0.0184,-0.0193 -0.028,-0.0285 0.01,0.009 0.0188,0.0189 0.028,0.0285 z m -0.028,-0.0285 c -0.0135,-0.0129 -0.0276,-0.0253 -0.0421,-0.0374 0.0145,0.0121 0.0286,0.0245 0.0421,0.0374 z m -0.0421,-0.0374 c -0.0162,-0.0136 -0.0333,-0.0265 -0.0508,-0.039 0.0176,0.0124 0.0345,0.0254 0.0508,0.039 z m -0.0508,-0.039 c -0.01,-0.007 -0.0195,-0.0143 -0.0298,-0.021 0.0103,0.007 0.0199,0.0139 0.0298,0.021 z m -0.0298,-0.021 c -0.0309,-0.0199 -0.0633,-0.0385 -0.0985,-0.0547 0.0352,0.0162 0.0676,0.0349 0.0985,0.0547 z m -0.80929,-10.20281 c 0,0 0.71766,0.15589 1.09927,0.38046 0.21077,0.11494 0.2331,0.12597 0.30401,0.16384 -0.1607,-0.0961 0.27677,0.14779 0,0 0.0221,0.0132 0.12454,0.0717 0.19181,0.11043 -1e-4,0.006 -2.5e-4,0.0115 -3.5e-4,0.0177 0.0786,0.0457 0.099,0.0585 0.28718,0.16613 -0.0419,0.63636 0.34749,1.23444 0.34749,1.23444 l -0.21951,0.0839 -0.41341,-0.194 c 1.3e-4,-0.004 2.2e-4,-0.009 3.5e-4,-0.0141 l -0.0522,-0.0242 -0.22405,-0.10617 c 0,0 -0.26298,-0.076 -0.44883,-0.17696 -0.2357,-0.12798 -0.58674,-0.25694 -0.67815,-0.49711 -0.14597,-0.38362 -0.19356,-1.14432 -0.19356,-1.14432 z" />
    </g>
  </g>
</svg>
