<svg xmlns="http://www.w3.org/2000/svg" version="1.1" xmlns:xlink="http://www.w3.org/1999/xlink" xmlns:svgjs="http://svgjs.com/svgjs" width="200" height="100" preserveAspectRatio="none" viewBox="0 0 200 100"><g mask="url(&quot;#SvgjsMask2326&quot;)" fill="none"><g transform="translate(0, 0)" stroke-linecap="round" stroke="url(#SvgjsLinearGradient2327)"><path d="M5 16.8 L5 83.2" stroke-width="7.5"></path><path d="M15 40.26 L15 59.74" stroke-width="7.5"></path><path d="M25 18.98 L25 33.980000000000004" stroke-width="7.5"></path><path d="M25 45.230000000000004 L25 52.730000000000004" stroke-width="7.5"></path><path d="M25 63.980000000000004 L25 81.02" stroke-width="7.5"></path><path d="M35 38.22 L35 61.78" stroke-width="7.5"></path><path d="M45 7.66 L45 37.66" stroke-width="7.5"></path><path d="M45 48.91 L45 56.41" stroke-width="7.5"></path><path d="M45 67.66 L45 92.34" stroke-width="7.5"></path><path d="M55 18.92 L55 33.92" stroke-width="7.5"></path><path d="M55 45.17 L55 81.08" stroke-width="7.5"></path><path d="M65 7.08 L65 37.08" stroke-width="7.5"></path><path d="M65 48.33 L65 63.33" stroke-width="7.5"></path><path d="M65 74.58 L65 92.92" stroke-width="7.5"></path><path d="M75 47.74 L75 52.26" stroke-width="7.5"></path><path d="M85 43.26 L85 56.74" stroke-width="7.5"></path><path d="M95 12.66 L95 87.34" stroke-width="7.5"></path><path d="M105 15.98 L105 38.480000000000004" stroke-width="7.5"></path><path d="M105 49.730000000000004 L105 57.230000000000004" stroke-width="7.5"></path><path d="M105 68.48 L105 84.02" stroke-width="7.5"></path><path d="M115 31.12 L115 46.120000000000005" stroke-width="7.5"></path><path d="M115 57.370000000000005 L115 68.88" stroke-width="7.5"></path><path d="M125 3.92 L125 41.42" stroke-width="7.5"></path><path d="M125 52.67 L125 75.17" stroke-width="7.5"></path><path d="M125 86.42 L125 96.08" stroke-width="7.5"></path><path d="M135 37.8 L135 62.2" stroke-width="7.5"></path><path d="M145 5.93 L145 94.07" stroke-width="7.5"></path><path d="M155 14.76 L155 85.25" stroke-width="7.5"></path><path d="M165 12.64 L165 35.14" stroke-width="7.5"></path><path d="M165 46.39 L165 53.89" stroke-width="7.5"></path><path d="M165 65.14 L165 87.36" stroke-width="7.5"></path><path d="M175 47.31 L175 52.69" stroke-width="7.5"></path><path d="M185 19.3 L185 34.3" stroke-width="7.5"></path><path d="M185 45.55 L185 60.55" stroke-width="7.5"></path><path d="M185 71.8 L185 80.7" stroke-width="7.5"></path><path d="M195 3.83 L195 96.17" stroke-width="7.5"></path></g></g><defs><mask id="SvgjsMask2326"><rect width="200" height="100" fill="#ffffff"></rect></mask><linearGradient x1="0" y1="50" x2="200" y2="50" gradientUnits="userSpaceOnUse" id="SvgjsLinearGradient2327"><stop stop-color="rgba(58, 124, 195, 1)" offset="0"></stop><stop stop-color="rgba(255, 255, 255, 1)" offset="1"></stop></linearGradient></defs></svg>