<svg xmlns="http://www.w3.org/2000/svg" version="1.1" xmlns:xlink="http://www.w3.org/1999/xlink" xmlns:svgjs="http://svgjs.com/svgjs" width="1440" height="560" preserveAspectRatio="none" viewBox="0 0 1440 560"><g mask="url(&quot;#SvgjsMask1370&quot;)" fill="none"><path d="M -396.71047707802967,320 C -324.71,307.4 -180.71,258.6 -36.71047707802969,257 C 107.29,255.4 179.29,312.4 323.28952292197033,312 C 467.29,311.6 539.29,223.2 683.2895229219703,255 C 827.29,286.8 899.29,496.8 1043.2895229219703,471 C 1187.29,445.2 1323.95,161 1403.2895229219703,126 C 1482.63,91 1432.66,262 1440,296" stroke="rgba(50, 140, 157, 1)" stroke-width="2"></path><path d="M -593.1638758927886,95 C -521.16,166.8 -377.16,440.4 -233.1638758927886,454 C -89.16,467.6 -17.16,194 126.83612410721139,163 C 270.84,132 342.84,294.6 486.8361241072114,299 C 630.84,303.4 702.84,170.4 846.8361241072114,185 C 990.84,199.6 1088.2,380.8 1206.8361241072114,372 C 1325.47,363.2 1393.37,187.2 1440,141" stroke="rgba(50, 140, 157, 1)" stroke-width="2"></path><path d="M -333.2740547228928,283 C -261.27,266.6 -117.27,181.6 26.72594527710721,201 C 170.73,220.4 242.73,366 386.7259452771072,380 C 530.73,394 602.73,272.6 746.7259452771073,271 C 890.73,269.4 962.73,400.2 1106.7259452771073,372 C 1250.73,343.8 1400.07,145.4 1466.7259452771073,130 C 1533.38,114.6 1445.35,262 1440,295" stroke="rgba(232, 249, 237, 1)" stroke-width="2"></path></g><defs><mask id="SvgjsMask1370"><rect width="1440" height="560" fill="#ffffff"></rect></mask></defs></svg>