<svg xmlns="http://www.w3.org/2000/svg" version="1.1" xmlns:xlink="http://www.w3.org/1999/xlink" xmlns:svgjs="http://svgjs.com/svgjs" width="1440" height="560" preserveAspectRatio="none" viewBox="0 0 1440 560"><g mask="url(&quot;#SvgjsMask1078&quot;)" fill="none"><rect width="1440" height="560" x="0" y="0" fill="#0e2a47"></rect><path d="M -342.0185278631433,145 C -270.02,202.6 -126.02,414.2 17.981472136856702,433 C 161.98,451.8 233.98,266.6 377.9814721368567,239 C 521.98,211.4 593.98,300 737.9814721368567,295 C 881.98,290 953.98,189.8 1097.9814721368566,214 C 1241.98,238.2 1389.58,440.2 1457.9814721368566,416 C 1526.39,391.8 1443.6,157.6 1440,93" stroke="rgba(1, 17, 34, 1)" stroke-width="2"></path><path d="M -408.35598210714187,246 C -336.36,264 -192.36,343.2 -48.35598210714189,336 C 95.64,328.8 167.64,186.6 311.64401789285813,210 C 455.64,233.4 527.64,449 671.6440178928581,453 C 815.64,457 887.64,261.8 1031.644017892858,230 C 1175.64,198.2 1309.97,307.6 1391.644017892858,294 C 1473.32,280.4 1430.33,188.4 1440,162" stroke="rgba(1, 17, 34, 1)" stroke-width="2"></path><path d="M -718.8030489372024,305 C -646.8,268 -502.8,121.4 -358.80304893720245,120 C -214.8,118.6 -142.8,268.2 1.1969510627975524,298 C 145.2,327.8 217.2,250.6 361.19695106279755,269 C 505.2,287.4 577.2,388.8 721.1969510627976,390 C 865.2,391.2 937.44,274 1081.1969510627976,275 C 1224.96,276 1368.24,371 1440,395" stroke="rgba(1, 17, 34, 1)" stroke-width="2"></path><path d="M -291.62786435615055,472 C -219.63,427.8 -75.63,261.8 68.37213564384943,251 C 212.37,240.2 284.37,418.6 428.37213564384945,418 C 572.37,417.4 644.37,244.6 788.3721356438494,248 C 932.37,251.4 1004.37,465.4 1148.3721356438493,435 C 1292.37,404.6 1450.05,92 1508.3721356438493,96 C 1566.7,100 1453.67,383.2 1440,455" stroke="rgba(1, 17, 34, 1)" stroke-width="2"></path></g><defs><mask id="SvgjsMask1078"><rect width="1440" height="560" fill="#ffffff"></rect></mask></defs></svg>